<svg width="33" height="57" viewBox="0 0 33 57" fill="none" xmlns="http://www.w3.org/2000/svg">
<g filter="url(#filter0_d_7_839)">
<g filter="url(#filter1_ii_7_839)">
<path d="M9.01441 12.8977C9.0725 10.8768 10.4276 9.13474 12.3618 8.53386L12.4944 8.49265C15.2072 7.64986 18.1147 7.70724 20.781 8.65619C22.6164 9.30942 23.8416 11.0373 23.8459 12.9889C23.853 16.2541 23.8593 21.6873 23.8438 27.9096C23.8315 32.8561 23.6766 37.8244 23.541 41.2719C23.4363 43.9319 21.4468 46.1325 18.8145 46.5456L18.6481 46.5717C16.9216 46.8426 15.1628 46.8077 13.4523 46.4684C11.0072 45.9836 9.2455 43.8511 9.21522 41.3563C9.1773 38.2316 9.10651 33.565 8.97731 27.9257C8.8311 21.544 8.92064 16.1598 9.01441 12.8977Z" fill="url(#paint0_linear_7_839)"/>
<path d="M9.01441 12.8977C9.0725 10.8768 10.4276 9.13474 12.3618 8.53386L12.4944 8.49265C15.2072 7.64986 18.1147 7.70724 20.781 8.65619C22.6164 9.30942 23.8416 11.0373 23.8459 12.9889C23.853 16.2541 23.8593 21.6873 23.8438 27.9096C23.8315 32.8561 23.6766 37.8244 23.541 41.2719C23.4363 43.9319 21.4468 46.1325 18.8145 46.5456L18.6481 46.5717C16.9216 46.8426 15.1628 46.8077 13.4523 46.4684C11.0072 45.9836 9.2455 43.8511 9.21522 41.3563C9.1773 38.2316 9.10651 33.565 8.97731 27.9257C8.8311 21.544 8.92064 16.1598 9.01441 12.8977Z" stroke="white"/>
</g>
<path d="M13.0114 17.1424C15.2575 16.6131 17.5963 16.6552 19.8129 17.2644C20.8501 17.5495 21.49 18.6942 21.2183 19.8167C20.6769 22.0532 20.0529 25.4788 20.0604 29.3758C20.0666 32.6072 20.5268 35.8473 20.9518 38.1579C21.204 39.5302 20.2538 40.8555 18.9213 41.0125L18.6324 41.0467C16.9238 41.2478 15.1972 41.217 13.5006 40.9551C12.2984 40.7693 11.4554 39.4549 11.7363 38.1499C12.1933 36.027 12.6249 32.979 12.4972 29.3373C12.3585 25.3825 11.7935 21.9992 11.3179 19.7691C11.0694 18.6033 11.7879 17.4314 12.8926 17.1711L13.0114 17.1424Z" fill="#A7A5A5" stroke="white" stroke-width="1.45156"/>
<g filter="url(#filter2_di_7_839)">
<path fill-rule="evenodd" clip-rule="evenodd" d="M13.6029 8.83203C15.3807 8.00614 17.4399 7.98874 19.2133 8.79785C21.3946 9.79315 22.8064 11.9492 22.8422 14.3525C22.858 15.4195 22.8742 16.6475 22.891 17.9633C22.8919 18.0325 22.8002 18.0627 22.7568 18.0088C22.7125 17.9539 22.6277 17.9965 22.6372 18.0664C22.6857 18.4208 22.677 18.7879 22.6 19.1523C22.0821 21.6006 21.4692 25.4297 21.4808 29.7969C21.4902 33.2919 21.9931 36.8116 22.4681 39.3623C22.5668 39.8923 22.5434 40.4219 22.4187 40.9184C22.4106 40.9507 22.4504 40.9729 22.4724 40.9481C22.4927 40.9251 22.5313 40.9407 22.5293 40.9714C22.4791 41.7458 22.4342 42.4161 22.3959 42.9443C22.3388 43.7314 21.8135 44.404 21.0658 44.6611L20.7562 44.7676C17.7153 45.8129 14.4134 45.7714 11.4154 44.6514C10.7392 44.3987 10.2752 43.7784 10.2308 43.0566C10.1946 42.4658 10.1478 41.6731 10.0946 40.7257C10.0903 40.6493 10.1985 40.6159 10.2428 40.6783C10.2867 40.7401 10.3802 40.6955 10.3692 40.6205C10.3076 40.2008 10.3174 39.7659 10.4095 39.3379C10.9077 37.0232 11.3701 33.7247 11.2269 29.793C11.069 25.4576 10.4391 21.7427 9.90563 19.2832C9.84912 19.0225 9.82484 18.7597 9.83086 18.5008C9.83156 18.4706 9.79167 18.4595 9.77869 18.4868C9.76521 18.5152 9.72029 18.5052 9.72159 18.4738C9.78746 16.8821 9.86132 15.408 9.932 14.168C10.0638 11.8566 11.4977 9.81006 13.6029 8.83203ZM20.0785 16.1084C17.7816 15.4599 15.3518 15.4153 13.0238 15.9795L12.9066 16.0078C11.4631 16.3578 10.5849 17.856 10.889 19.3047C11.348 21.4902 11.9063 24.8676 12.0404 28.8271C12.1634 32.4582 11.7318 35.4827 11.2884 37.5518C10.9501 39.132 11.9491 40.8023 13.5414 41.0547C15.2831 41.3308 17.0567 41.3628 18.8109 41.1504L19.0912 41.1172C20.7889 40.9114 21.942 39.253 21.6381 37.5742C21.2241 35.2885 20.7683 32.0453 20.7631 28.8252C20.7568 24.9483 21.3745 21.5435 21.8968 19.3603C22.2301 17.967 21.4525 16.4964 20.0785 16.1084Z" fill="url(#paint1_linear_7_839)"/>
</g>
<g filter="url(#filter3_di_7_839)">
<path d="M10.3264 18.6873C10.1214 17.8397 10.6386 16.9575 11.4907 16.7567L16.0805 15.6752C16.3256 15.6174 16.5807 15.622 16.8226 15.6884L21.1396 16.875C21.9777 17.1053 22.4502 18.0011 22.2181 18.8422C21.6513 20.8963 20.7772 24.8071 20.786 29.3687C20.7937 33.3879 21.5188 37.4422 21.9879 39.6473C22.1782 40.5422 21.5603 41.4323 20.6491 41.5396L16.2414 42.0582C16.1068 42.074 15.9707 42.0716 15.837 42.0509L11.9792 41.4553C11.033 41.3092 10.4463 40.3174 10.6936 39.3897C11.2263 37.3915 11.9281 33.8373 11.7713 29.3687C11.6055 24.64 10.822 20.7374 10.3264 18.6873Z" fill="url(#paint2_linear_7_839)"/>
<path d="M10.3264 18.6873C10.1214 17.8397 10.6386 16.9575 11.4907 16.7567L16.0805 15.6752C16.3256 15.6174 16.5807 15.622 16.8226 15.6884L21.1396 16.875C21.9777 17.1053 22.4502 18.0011 22.2181 18.8422C21.6513 20.8963 20.7772 24.8071 20.786 29.3687C20.7937 33.3879 21.5188 37.4422 21.9879 39.6473C22.1782 40.5422 21.5603 41.4323 20.6491 41.5396L16.2414 42.0582C16.1068 42.074 15.9707 42.0716 15.837 42.0509L11.9792 41.4553C11.033 41.3092 10.4463 40.3174 10.6936 39.3897C11.2263 37.3915 11.9281 33.8373 11.7713 29.3687C11.6055 24.64 10.822 20.7374 10.3264 18.6873Z" stroke="white"/>
</g>
<g filter="url(#filter4_d_7_839)">
<g filter="url(#filter5_d_7_839)">
<path d="M22.5269 11.8321C22.3635 11.4932 22.175 11.2354 21.9779 11.0414C21.4261 10.4982 21.0245 11.2492 21.4084 11.9212C21.4325 11.9634 21.4564 12.0058 21.4802 12.0485C21.971 12.9299 22.9649 12.7407 22.5269 11.8321Z" fill="white"/>
<path d="M21.9779 11.0417C21.426 10.4985 21.0244 11.2495 21.4084 11.9215L21.4806 12.0486L21.5774 12.2011C22.0552 12.8567 22.8258 12.7093 22.5927 11.9942L22.5267 11.8317C22.4042 11.5777 22.2675 11.3692 22.1238 11.199L21.9779 11.0417Z" stroke="white" stroke-width="4.35467" stroke-linecap="round"/>
</g>
</g>
<g filter="url(#filter6_d_7_839)">
<path d="M10.0318 11.8896C10.1937 11.5332 10.3836 11.2608 10.5841 11.0546C11.1453 10.4775 11.5816 11.2513 11.1982 11.959C11.1741 12.0035 11.1502 12.0483 11.1265 12.0933C10.637 13.0214 9.5979 12.8449 10.0318 11.8896Z" fill="white"/>
<path d="M10.5841 11.055C11.1453 10.478 11.5817 11.2515 11.1984 11.9593L11.1261 12.0936L11.0289 12.2547C10.5473 12.947 9.74174 12.8091 9.96741 12.0594L10.0317 11.8897C10.1531 11.6225 10.2903 11.4023 10.4359 11.222L10.5841 11.055Z" stroke="white" stroke-width="4.35467" stroke-linecap="round"/>
</g>
<g filter="url(#filter7_di_7_839)">
<path fill-rule="evenodd" clip-rule="evenodd" d="M12.1929 14.827C15.032 14.1038 18.0076 14.1584 20.8061 14.9843C21.9805 15.3309 22.8051 16.375 22.852 17.6005C22.9399 19.8944 23.0619 23.9126 23.063 28.5575C23.0639 32.4011 22.8289 36.2751 22.6411 38.7577C22.6203 39.0332 22.5625 39.2985 22.478 39.5507C22.4676 39.4438 22.4542 39.3365 22.4341 39.2294C21.9642 36.7261 21.4726 33.3041 21.4634 29.9052C21.4518 25.6519 22.0517 21.9171 22.5659 19.5038C22.9032 17.92 22.005 16.2818 20.4517 15.8446C17.8754 15.1197 15.1533 15.0523 12.5337 15.6483L12.3306 15.6942C10.5895 16.0904 9.52795 17.9025 9.90771 19.6405C10.4371 22.062 11.0544 25.6827 11.2104 29.9003C11.3518 33.7213 10.9033 36.9348 10.4126 39.2089C10.3591 39.4566 10.3324 39.7069 10.3315 39.955C10.1605 39.5957 10.0545 39.1998 10.0327 38.7811C9.91482 36.5155 9.74379 32.8566 9.60595 28.413C9.45848 23.6592 9.6461 19.743 9.80614 17.4852C9.89559 16.2237 10.8012 15.1818 12.0288 14.869L12.1929 14.827Z" fill="url(#paint3_linear_7_839)"/>
</g>
<g filter="url(#filter8_ii_7_839)">
<path fill-rule="evenodd" clip-rule="evenodd" d="M13.5201 9.57589C15.3021 8.77709 17.3468 8.76092 19.1226 9.54269C21.4037 10.547 22.8881 12.7799 22.9263 15.279C22.9424 16.3298 22.9596 17.5281 22.9765 18.8065C22.9773 18.8656 22.8988 18.891 22.8625 18.8443C22.8254 18.7964 22.7511 18.8319 22.7592 18.892C22.8108 19.2706 22.8012 19.6628 22.7174 20.0515C22.1934 22.4814 21.5983 26.1734 21.6099 30.3659C21.6193 33.7077 22.1043 37.0722 22.5797 39.573C22.6915 40.1618 22.6582 40.7504 22.5079 41.2993C22.4999 41.3286 22.5362 41.3489 22.556 41.3259C22.5741 41.3049 22.6088 41.3189 22.607 41.3465C22.5565 42.1018 22.5116 42.7605 22.4722 43.2868C22.4098 44.1194 21.8475 44.8309 21.0533 45.0944L20.7408 45.198C17.6414 46.226 14.2953 46.1861 11.2398 45.0847C10.5219 44.8258 10.0266 44.1691 9.9781 43.406C9.94554 42.8919 9.9044 42.2348 9.85883 41.4632C9.85234 41.3531 10.0013 41.2982 10.0747 41.3804C10.1501 41.4648 10.2799 41.3825 10.2532 41.2726C10.1192 40.7213 10.1028 40.1348 10.2271 39.5603C10.7201 37.2841 11.1588 34.1138 11.0162 30.361C10.8585 26.2114 10.2443 22.6359 9.70564 20.2028C9.61376 19.7877 9.60092 19.3676 9.65718 18.9619C9.66436 18.9101 9.59878 18.8815 9.56966 18.9249C9.54086 18.9679 9.46989 18.9465 9.47216 18.8948C9.53339 17.5015 9.60044 16.2058 9.6656 15.0896C9.80595 12.6858 11.3163 10.5639 13.5201 9.57589ZM20.0035 16.7917C17.6993 16.1641 15.2702 16.1208 12.9351 16.6667L12.817 16.6941C11.2976 17.0493 10.3708 18.6284 10.6959 20.1482C11.1593 22.3148 11.7064 25.5865 11.8404 29.405C11.9629 32.8965 11.5488 35.8212 11.108 37.863C10.7521 39.5118 11.793 41.2667 13.4556 41.5212C15.1924 41.7868 16.9594 41.8173 18.7086 41.613L18.9957 41.5798C20.7704 41.3722 21.9761 39.6299 21.6529 37.8777C21.2378 35.627 20.7958 32.5044 20.7906 29.403C20.7844 25.6627 21.386 22.3667 21.9127 20.2009C22.2683 18.7385 21.4499 17.1857 20.0035 16.7917Z" fill="url(#paint4_linear_7_839)"/>
</g>
<g filter="url(#filter9_ii_7_839)">
<path d="M11.3426 23.923C14.4708 22.7681 17.9055 22.7493 21.0462 23.8698L21.1566 23.9092C21.1566 23.9092 20.8835 25.9041 20.8835 30.1434C20.9883 34.3564 21.3667 36.2488 21.3667 36.2488L20.9909 36.328C17.8255 36.9958 14.552 36.9598 11.402 36.2226C11.402 36.2226 11.7976 32.9816 11.7752 30.1395C11.7559 27.6971 11.3426 23.923 11.3426 23.923Z" fill="url(#paint5_linear_7_839)"/>
<path d="M11.3426 23.923C14.4708 22.7681 17.9055 22.7493 21.0462 23.8698L21.1566 23.9092C21.1566 23.9092 20.8835 25.9041 20.8835 30.1434C20.9883 34.3564 21.3667 36.2488 21.3667 36.2488L20.9909 36.328C17.8255 36.9958 14.552 36.9598 11.402 36.2226C11.402 36.2226 11.7976 32.9816 11.7752 30.1395C11.7559 27.6971 11.3426 23.923 11.3426 23.923Z" stroke="white"/>
</g>
</g>
<defs>
<filter id="filter0_d_7_839" x="2.47955e-05" y="2.47955e-05" width="32.7534" height="56.6518" filterUnits="userSpaceOnUse" color-interpolation-filters="sRGB">
<feFlood flood-opacity="0" result="BackgroundImageFix"/>
<feColorMatrix in="SourceAlpha" type="matrix" values="0 0 0 0 0 0 0 0 0 0 0 0 0 0 0 0 0 0 127 0" result="hardAlpha"/>
<feOffset dy="1"/>
<feGaussianBlur stdDeviation="4.45"/>
<feComposite in2="hardAlpha" operator="out"/>
<feColorMatrix type="matrix" values="0 0 0 0 0 0 0 0 0 0 0 0 0 0 0 0 0 0 0.7 0"/>
<feBlend mode="normal" in2="BackgroundImageFix" result="effect1_dropShadow_7_839"/>
<feBlend mode="normal" in="SourceGraphic" in2="effect1_dropShadow_7_839" result="shape"/>
</filter>
<filter id="filter1_ii_7_839" x="8.90002" y="2.09379" width="19.308" height="44.658" filterUnits="userSpaceOnUse" color-interpolation-filters="sRGB">
<feFlood flood-opacity="0" result="BackgroundImageFix"/>
<feBlend mode="normal" in="SourceGraphic" in2="BackgroundImageFix" result="shape"/>
<feColorMatrix in="SourceAlpha" type="matrix" values="0 0 0 0 0 0 0 0 0 0 0 0 0 0 0 0 0 0 127 0" result="hardAlpha"/>
<feOffset dx="4.35467" dy="-5.80623"/>
<feGaussianBlur stdDeviation="17.4187"/>
<feComposite in2="hardAlpha" operator="arithmetic" k2="-1" k3="1"/>
<feColorMatrix type="matrix" values="0 0 0 0 0 0 0 0 0 0 0 0 0 0 0 0 0 0 0.07 0"/>
<feBlend mode="normal" in2="shape" result="effect1_innerShadow_7_839"/>
<feColorMatrix in="SourceAlpha" type="matrix" values="0 0 0 0 0 0 0 0 0 0 0 0 0 0 0 0 0 0 127 0" result="hardAlpha"/>
<feOffset dy="-0.725779"/>
<feGaussianBlur stdDeviation="1.45156"/>
<feComposite in2="hardAlpha" operator="arithmetic" k2="-1" k3="1"/>
<feColorMatrix type="matrix" values="0 0 0 0 0 0 0 0 0 0 0 0 0 0 0 0 0 0 0.25 0"/>
<feBlend mode="normal" in2="effect1_innerShadow_7_839" result="effect2_innerShadow_7_839"/>
</filter>
<filter id="filter2_di_7_839" x="6.81844" y="8.20166" width="16.8231" height="40.224" filterUnits="userSpaceOnUse" color-interpolation-filters="sRGB">
<feFlood flood-opacity="0" result="BackgroundImageFix"/>
<feColorMatrix in="SourceAlpha" type="matrix" values="0 0 0 0 0 0 0 0 0 0 0 0 0 0 0 0 0 0 127 0" result="hardAlpha"/>
<feOffset dy="0.750549"/>
<feGaussianBlur stdDeviation="0.375275"/>
<feColorMatrix type="matrix" values="0 0 0 0 0.925374 0 0 0 0 0.925374 0 0 0 0 0.925374 0 0 0 0.37 0"/>
<feBlend mode="normal" in2="BackgroundImageFix" result="effect1_dropShadow_7_839"/>
<feBlend mode="normal" in="SourceGraphic" in2="effect1_dropShadow_7_839" result="shape"/>
<feColorMatrix in="SourceAlpha" type="matrix" values="0 0 0 0 0 0 0 0 0 0 0 0 0 0 0 0 0 0 127 0" result="hardAlpha"/>
<feOffset dx="-2.90311" dy="3.62889"/>
<feGaussianBlur stdDeviation="1.45156"/>
<feComposite in2="hardAlpha" operator="arithmetic" k2="-1" k3="1"/>
<feColorMatrix type="matrix" values="0 0 0 0 0 0 0 0 0 0 0 0 0 0 0 0 0 0 0.8 0"/>
<feBlend mode="normal" in2="shape" result="effect2_innerShadow_7_839"/>
</filter>
<filter id="filter3_di_7_839" x="7.37844" y="15.635" width="15.6492" height="29.3366" filterUnits="userSpaceOnUse" color-interpolation-filters="sRGB">
<feFlood flood-opacity="0" result="BackgroundImageFix"/>
<feColorMatrix in="SourceAlpha" type="matrix" values="0 0 0 0 0 0 0 0 0 0 0 0 0 0 0 0 0 0 127 0" result="hardAlpha"/>
<feOffset dy="0.750549"/>
<feGaussianBlur stdDeviation="0.375275"/>
<feColorMatrix type="matrix" values="0 0 0 0 0.925374 0 0 0 0 0.925374 0 0 0 0 0.925374 0 0 0 0.37 0"/>
<feBlend mode="normal" in2="BackgroundImageFix" result="effect1_dropShadow_7_839"/>
<feBlend mode="normal" in="SourceGraphic" in2="effect1_dropShadow_7_839" result="shape"/>
<feColorMatrix in="SourceAlpha" type="matrix" values="0 0 0 0 0 0 0 0 0 0 0 0 0 0 0 0 0 0 127 0" result="hardAlpha"/>
<feOffset dx="-2.90312" dy="3.62889"/>
<feGaussianBlur stdDeviation="1.45156"/>
<feComposite in2="hardAlpha" operator="arithmetic" k2="-1" k3="1"/>
<feColorMatrix type="matrix" values="0 0 0 0 0 0 0 0 0 0 0 0 0 0 0 0 0 0 0.8 0"/>
<feBlend mode="normal" in2="shape" result="effect2_innerShadow_7_839"/>
</filter>
<filter id="filter4_d_7_839" x="19.8051" y="7.95187" width="4.28214" height="4.66825" filterUnits="userSpaceOnUse" color-interpolation-filters="sRGB">
<feFlood flood-opacity="0" result="BackgroundImageFix"/>
<feColorMatrix in="SourceAlpha" type="matrix" values="0 0 0 0 0 0 0 0 0 0 0 0 0 0 0 0 0 0 127 0" result="hardAlpha"/>
<feOffset dy="-1.45156"/>
<feGaussianBlur stdDeviation="0.725779"/>
<feColorMatrix type="matrix" values="0 0 0 0 0 0 0 0 0 0 0 0 0 0 0 0 0 0 0.25 0"/>
<feBlend mode="normal" in2="BackgroundImageFix" result="effect1_dropShadow_7_839"/>
<feBlend mode="normal" in="SourceGraphic" in2="effect1_dropShadow_7_839" result="shape"/>
</filter>
<filter id="filter5_d_7_839" x="20.5309" y="10.855" width="2.83059" height="3.21669" filterUnits="userSpaceOnUse" color-interpolation-filters="sRGB">
<feFlood flood-opacity="0" result="BackgroundImageFix"/>
<feColorMatrix in="SourceAlpha" type="matrix" values="0 0 0 0 0 0 0 0 0 0 0 0 0 0 0 0 0 0 127 0" result="hardAlpha"/>
<feOffset dy="0.725779"/>
<feGaussianBlur stdDeviation="0.362889"/>
<feColorMatrix type="matrix" values="0 0 0 0 1 0 0 0 0 1 0 0 0 0 1 0 0 0 0.25 0"/>
<feBlend mode="normal" in2="BackgroundImageFix" result="effect1_dropShadow_7_839"/>
<feBlend mode="normal" in="SourceGraphic" in2="effect1_dropShadow_7_839" result="shape"/>
</filter>
<filter id="filter6_d_7_839" x="8.47667" y="7.94979" width="4.31815" height="4.75504" filterUnits="userSpaceOnUse" color-interpolation-filters="sRGB">
<feFlood flood-opacity="0" result="BackgroundImageFix"/>
<feColorMatrix in="SourceAlpha" type="matrix" values="0 0 0 0 0 0 0 0 0 0 0 0 0 0 0 0 0 0 127 0" result="hardAlpha"/>
<feOffset dy="-1.45156"/>
<feGaussianBlur stdDeviation="0.725779"/>
<feColorMatrix type="matrix" values="0 0 0 0 0 0 0 0 0 0 0 0 0 0 0 0 0 0 0.25 0"/>
<feBlend mode="normal" in2="BackgroundImageFix" result="effect1_dropShadow_7_839"/>
<feBlend mode="normal" in="SourceGraphic" in2="effect1_dropShadow_7_839" result="shape"/>
</filter>
<filter id="filter7_di_7_839" x="6.64938" y="14.322" width="17.1642" height="28.536" filterUnits="userSpaceOnUse" color-interpolation-filters="sRGB">
<feFlood flood-opacity="0" result="BackgroundImageFix"/>
<feColorMatrix in="SourceAlpha" type="matrix" values="0 0 0 0 0 0 0 0 0 0 0 0 0 0 0 0 0 0 127 0" result="hardAlpha"/>
<feOffset dy="0.750549"/>
<feGaussianBlur stdDeviation="0.375275"/>
<feColorMatrix type="matrix" values="0 0 0 0 0.925374 0 0 0 0 0.925374 0 0 0 0 0.925374 0 0 0 0.37 0"/>
<feBlend mode="normal" in2="BackgroundImageFix" result="effect1_dropShadow_7_839"/>
<feBlend mode="normal" in="SourceGraphic" in2="effect1_dropShadow_7_839" result="shape"/>
<feColorMatrix in="SourceAlpha" type="matrix" values="0 0 0 0 0 0 0 0 0 0 0 0 0 0 0 0 0 0 127 0" result="hardAlpha"/>
<feOffset dx="-2.90311" dy="3.62889"/>
<feGaussianBlur stdDeviation="1.45156"/>
<feComposite in2="hardAlpha" operator="arithmetic" k2="-1" k3="1"/>
<feColorMatrix type="matrix" values="0 0 0 0 0 0 0 0 0 0 0 0 0 0 0 0 0 0 0.8 0"/>
<feBlend mode="normal" in2="shape" result="effect2_innerShadow_7_839"/>
</filter>
<filter id="filter8_ii_7_839" x="9.47211" y="3.1602" width="17.8591" height="42.7807" filterUnits="userSpaceOnUse" color-interpolation-filters="sRGB">
<feFlood flood-opacity="0" result="BackgroundImageFix"/>
<feBlend mode="normal" in="SourceGraphic" in2="BackgroundImageFix" result="shape"/>
<feColorMatrix in="SourceAlpha" type="matrix" values="0 0 0 0 0 0 0 0 0 0 0 0 0 0 0 0 0 0 127 0" result="hardAlpha"/>
<feOffset dx="4.35467" dy="-5.80623"/>
<feGaussianBlur stdDeviation="17.4187"/>
<feComposite in2="hardAlpha" operator="arithmetic" k2="-1" k3="1"/>
<feColorMatrix type="matrix" values="0 0 0 0 0 0 0 0 0 0 0 0 0 0 0 0 0 0 0.07 0"/>
<feBlend mode="normal" in2="shape" result="effect1_innerShadow_7_839"/>
<feColorMatrix in="SourceAlpha" type="matrix" values="0 0 0 0 0 0 0 0 0 0 0 0 0 0 0 0 0 0 127 0" result="hardAlpha"/>
<feOffset dy="-0.725779"/>
<feGaussianBlur stdDeviation="1.45156"/>
<feComposite in2="hardAlpha" operator="arithmetic" k2="-1" k3="1"/>
<feColorMatrix type="matrix" values="0 0 0 0 0 0 0 0 0 0 0 0 0 0 0 0 0 0 0.09 0"/>
<feBlend mode="normal" in2="effect1_innerShadow_7_839" result="effect2_innerShadow_7_839"/>
</filter>
<filter id="filter9_ii_7_839" x="11.3426" y="17.2367" width="14.3788" height="19.5668" filterUnits="userSpaceOnUse" color-interpolation-filters="sRGB">
<feFlood flood-opacity="0" result="BackgroundImageFix"/>
<feBlend mode="normal" in="SourceGraphic" in2="BackgroundImageFix" result="shape"/>
<feColorMatrix in="SourceAlpha" type="matrix" values="0 0 0 0 0 0 0 0 0 0 0 0 0 0 0 0 0 0 127 0" result="hardAlpha"/>
<feOffset dx="4.35467" dy="-5.80623"/>
<feGaussianBlur stdDeviation="17.4187"/>
<feComposite in2="hardAlpha" operator="arithmetic" k2="-1" k3="1"/>
<feColorMatrix type="matrix" values="0 0 0 0 0 0 0 0 0 0 0 0 0 0 0 0 0 0 0.07 0"/>
<feBlend mode="normal" in2="shape" result="effect1_innerShadow_7_839"/>
<feColorMatrix in="SourceAlpha" type="matrix" values="0 0 0 0 0 0 0 0 0 0 0 0 0 0 0 0 0 0 127 0" result="hardAlpha"/>
<feOffset dy="-0.725779"/>
<feGaussianBlur stdDeviation="1.45156"/>
<feComposite in2="hardAlpha" operator="arithmetic" k2="-1" k3="1"/>
<feColorMatrix type="matrix" values="0 0 0 0 0 0 0 0 0 0 0 0 0 0 0 0 0 0 0.25 0"/>
<feBlend mode="normal" in2="effect1_innerShadow_7_839" result="effect2_innerShadow_7_839"/>
</filter>
<linearGradient id="paint0_linear_7_839" x1="14.9781" y1="45.1" x2="4.42739" y2="42.5294" gradientUnits="userSpaceOnUse">
<stop stop-color="#D8D8D8"/>
<stop offset="1" stop-color="white"/>
</linearGradient>
<linearGradient id="paint1_linear_7_839" x1="22.3916" y1="116.822" x2="-11.3307" y2="105.592" gradientUnits="userSpaceOnUse">
<stop stop-color="#E8EAE9"/>
<stop offset="0.498386" stop-color="#707072"/>
<stop offset="1" stop-color="#2F3032"/>
</linearGradient>
<linearGradient id="paint2_linear_7_839" x1="20.7775" y1="92.7736" x2="-9.26711" y2="78.1429" gradientUnits="userSpaceOnUse">
<stop stop-color="#E8EAE9"/>
<stop offset="0.498386" stop-color="#707072"/>
<stop offset="1" stop-color="#2F3032"/>
</linearGradient>
<linearGradient id="paint3_linear_7_839" x1="22.5481" y1="88.9253" x2="-8.25742" y2="73.605" gradientUnits="userSpaceOnUse">
<stop stop-color="#E8EAE9"/>
<stop offset="0.498386" stop-color="#707072"/>
<stop offset="1" stop-color="#2F3032"/>
</linearGradient>
<linearGradient id="paint4_linear_7_839" x1="15.3661" y1="44.207" x2="5.89104" y2="42.1905" gradientUnits="userSpaceOnUse">
<stop stop-color="#D8D8D8"/>
<stop offset="1" stop-color="white"/>
</linearGradient>
<linearGradient id="paint5_linear_7_839" x1="19.8743" y1="39.8199" x2="9.24177" y2="35.941" gradientUnits="userSpaceOnUse">
<stop stop-color="#D2D2D2"/>
<stop offset="0.350909" stop-color="#CACACA"/>
<stop offset="1" stop-color="#F6F6F6"/>
</linearGradient>
</defs>
</svg>
