<svg width="24" height="24" viewBox="0 0 24 24" fill="none" xmlns="http://www.w3.org/2000/svg">
<mask id="mask0_230_853" style="mask-type:alpha" maskUnits="userSpaceOnUse" x="0" y="0" width="24" height="24">
<rect width="24" height="24" fill="#D9D9D9"/>
</mask>
<g mask="url(#mask0_230_853)">
<path d="M16 11.0001V6.00006H18V11.0001H16ZM11 17.9001C10.4167 17.7334 9.9375 17.4084 9.5625 16.9251C9.1875 16.4417 9 15.8834 9 15.2501V6.00006H11V17.9001ZM11.75 22.0001C10.0167 22.0001 8.54167 21.3917 7.325 20.1751C6.10833 18.9584 5.5 17.4834 5.5 15.7501L5.5 6.50006C5.5 5.25006 5.9375 4.18756 6.8125 3.31256C7.6875 2.43756 8.75 2.00006 10 2.00006C11.25 2.00006 12.3125 2.43756 13.1875 3.31256C14.0625 4.18756 14.5 5.25006 14.5 6.50006V14.0001H12.5V6.50006C12.4833 5.80006 12.2375 5.20839 11.7625 4.72506C11.2875 4.24173 10.7 4.00006 10 4.00006C9.3 4.00006 8.70833 4.24173 8.225 4.72506C7.74167 5.20839 7.5 5.80006 7.5 6.50006L7.5 15.7501C7.48333 16.9334 7.89167 17.9376 8.725 18.7626C9.55833 19.5876 10.5667 20.0001 11.75 20.0001C12.1667 20.0001 12.5625 19.9459 12.9375 19.8376C13.3125 19.7292 13.6667 19.5667 14 19.3501V21.5751C13.65 21.7084 13.2875 21.8126 12.9125 21.8876C12.5375 21.9626 12.15 22.0001 11.75 22.0001ZM16 21.0001L16 18.0001H13V16.0001H16V13.0001H18V16.0001H21V18.0001H18V21.0001H16Z" fill="#1C1B1F"/>
</g>
</svg>
