<svg width="15" height="15" viewBox="0 0 15 15" fill="none" xmlns="http://www.w3.org/2000/svg">
<path d="M4.575 14.4094C3.6625 14.0156 2.86875 13.4813 2.19375 12.8063C1.51875 12.1313 0.984375 11.3375 0.590625 10.425C0.196875 9.5125 0 8.5375 0 7.5C0 6.4625 0.196875 5.4875 0.590625 4.575C0.984375 3.6625 1.51875 2.86875 2.19375 2.19375C2.86875 1.51875 3.6625 0.984375 4.575 0.590625C5.4875 0.196875 6.4625 0 7.5 0C8.5375 0 9.5125 0.196875 10.425 0.590625C11.3375 0.984375 12.1313 1.51875 12.8063 2.19375C13.4813 2.86875 14.0156 3.6625 14.4094 4.575C14.8031 5.4875 15 6.4625 15 7.5C15 8.5375 14.8031 9.5125 14.4094 10.425C14.0156 11.3375 13.4813 12.1313 12.8063 12.8063C12.1313 13.4813 11.3375 14.0156 10.425 14.4094C9.5125 14.8031 8.5375 15 7.5 15C6.4625 15 5.4875 14.8031 4.575 14.4094ZM7.5 11.625C8.0625 11.0625 8.5625 10.4812 9 9.88125C9.375 9.36875 9.71875 8.80625 10.0312 8.19375C10.3438 7.58125 10.5 6.975 10.5 6.375C10.5 5.55 10.2063 4.84375 9.61875 4.25625C9.03125 3.66875 8.325 3.375 7.5 3.375C6.675 3.375 5.96875 3.66875 5.38125 4.25625C4.79375 4.84375 4.5 5.55 4.5 6.375C4.5 6.975 4.65625 7.58125 4.96875 8.19375C5.28125 8.80625 5.625 9.36875 6 9.88125C6.4375 10.4812 6.9375 11.0625 7.5 11.625ZM6.70312 7.17188C6.48438 6.95312 6.375 6.6875 6.375 6.375C6.375 6.0625 6.48438 5.79688 6.70312 5.57812C6.92188 5.35938 7.1875 5.25 7.5 5.25C7.8125 5.25 8.07812 5.35938 8.29688 5.57812C8.51562 5.79688 8.625 6.0625 8.625 6.375C8.625 6.6875 8.51562 6.95312 8.29688 7.17188C8.07812 7.39062 7.8125 7.5 7.5 7.5C7.1875 7.5 6.92188 7.39062 6.70312 7.17188Z" fill="#7700F6"/>
</svg>
