<svg width="30" height="30" viewBox="0 0 30 30" fill="none" xmlns="http://www.w3.org/2000/svg">
<mask id="mask0_230_17" style="mask-type:alpha" maskUnits="userSpaceOnUse" x="0" y="0" width="30" height="30">
<rect width="30" height="30" fill="#D9D9D9"/>
</mask>
<g mask="url(#mask0_230_17)">
<path d="M7.5 26.25C6.45833 26.25 5.57292 25.8854 4.84375 25.1562C4.11458 24.4271 3.75 23.5417 3.75 22.5V15C3.75 14.5 3.84375 14.0208 4.03125 13.5625C4.21875 13.1042 4.48958 12.6979 4.84375 12.3438L12.3438 4.84375C12.6979 4.46875 13.1094 4.19271 13.5781 4.01562C14.0469 3.83854 14.5208 3.75 15 3.75C15.4792 3.75 15.9479 3.83854 16.4062 4.01562C16.8646 4.19271 17.2812 4.46875 17.6562 4.84375L18.5938 5.78125L8.75 15.625V21.25H21.25V15.625L16.75 11.125L20.3438 7.5625L25.1562 12.3438C25.5104 12.6979 25.7812 13.1042 25.9688 13.5625C26.1562 14.0208 26.25 14.5 26.25 15V22.5C26.25 23.5417 25.8854 24.4271 25.1562 25.1562C24.4271 25.8854 23.5417 26.25 22.5 26.25H7.5Z" fill="#7700F6"/>
</g>
</svg>
