<svg width="30" height="30" viewBox="0 0 30 30" fill="none" xmlns="http://www.w3.org/2000/svg">
<mask id="mask0_230_33" style="mask-type:alpha" maskUnits="userSpaceOnUse" x="0" y="0" width="30" height="30">
<rect width="30" height="30" fill="#D9D9D9"/>
</mask>
<g mask="url(#mask0_230_33)">
<path d="M11.5728 13.6147C10.6632 12.705 10.2084 11.5626 10.2084 10.1876C10.2084 8.81256 10.6632 7.67016 11.5728 6.76037C12.4826 5.85079 13.625 5.396 15 5.396C16.375 5.396 17.5174 5.85079 18.4272 6.76037C19.3368 7.67016 19.7916 8.81256 19.7916 10.1876C19.7916 11.5626 19.3368 12.705 18.4272 13.6147C17.5174 14.5243 16.375 14.9791 15 14.9791C13.625 14.9791 12.4826 14.5243 11.5728 13.6147ZM5.5 25.0001C5.22386 25.0001 5 24.7762 5 24.5001V21.8751C5 21.1111 5.19271 20.4427 5.57812 19.8697C5.96354 19.2968 6.46531 18.8611 7.08344 18.5626C8.44448 17.9307 9.77427 17.4567 11.0728 17.1407C12.3716 16.8246 13.6806 16.6666 15 16.6666C16.3194 16.6666 17.6249 16.8281 18.9166 17.151C20.2082 17.4739 21.5347 17.9444 22.8959 18.5626C23.5278 18.8611 24.0365 19.2968 24.4219 19.8697C24.8073 20.4427 25 21.1111 25 21.8751V24.5001C25 24.7762 24.7761 25.0001 24.5 25.0001H5.5ZM7.08344 22.4166C7.08344 22.6928 7.3073 22.9166 7.58344 22.9166H22.4166C22.6927 22.9166 22.9166 22.6928 22.9166 22.4166V21.8751C22.9166 21.5765 22.8316 21.2953 22.6616 21.0313C22.4914 20.7674 22.2778 20.5694 22.0209 20.4376C20.757 19.8194 19.5659 19.3837 18.4478 19.1304C17.3299 18.8768 16.1806 18.7501 15 18.7501C13.8194 18.7501 12.6631 18.8768 11.5312 19.1304C10.3994 19.3837 9.20844 19.8194 7.95844 20.4376C7.70135 20.5694 7.49125 20.7674 7.32812 21.0313C7.165 21.2953 7.08344 21.5765 7.08344 21.8751V22.4166ZM16.9322 12.1197C17.4497 11.6025 17.7084 10.9584 17.7084 10.1876C17.7084 9.41673 17.4497 8.77266 16.9322 8.25537C16.4149 7.73787 15.7708 7.47912 15 7.47912C14.2292 7.47912 13.5851 7.73787 13.0678 8.25537C12.5503 8.77266 12.2916 9.41673 12.2916 10.1876C12.2916 10.9584 12.5503 11.6025 13.0678 12.1197C13.5851 12.6372 14.2292 12.896 15 12.896C15.7708 12.896 16.4149 12.6372 16.9322 12.1197Z" fill="#1C1B1F"/>
</g>
</svg>
